<?xml version="1.0"?>
<svg xmlns="http://www.w3.org/2000/svg" xmlns:xlink="http://www.w3.org/1999/xlink" xmlns:svgjs="http://svgjs.com/svgjs" version="1.1" width="512" height="512" x="0" y="0" viewBox="0 0 512 512" style="enable-background:new 0 0 512 512" xml:space="preserve" class=""><g><path xmlns="http://www.w3.org/2000/svg" d="M72,344a40.045,40.045,0,0,1,40-40,8,8,0,0,0,0-16,56.063,56.063,0,0,0-56,56,8,8,0,0,0,16,0Z" fill="#43464e" data-original="#000000" style="" class=""/><path xmlns="http://www.w3.org/2000/svg" d="M98.666,381.726a40.323,40.323,0,0,1-20-15.613,8,8,0,1,0-13.324,8.858,56.424,56.424,0,0,0,28,21.84,8,8,0,1,0,5.332-15.085Z" fill="#43464e" data-original="#000000" style="" class=""/><path xmlns="http://www.w3.org/2000/svg" d="M408,256a87.768,87.768,0,0,0-23.725,3.252l-29.59-77.677L403.3,169.422c.559,3.683.448,10.048-2.886,20.048a8,8,0,0,0,15.18,5.06c9.1-27.307-.014-38.267-1.933-40.187a8,8,0,0,0-7.6-2.1l-64,16a8,8,0,0,0-5.536,10.609l7.327,19.232L220.8,230.464,211.816,208H248a8,8,0,0,0,8-8,40.045,40.045,0,0,0-40-40H176V88a8,8,0,0,0-8-8H24a8,8,0,0,0-8,8V232a8,8,0,0,0,8,8H164l17.437,23.249L168.281,276.4A87.966,87.966,0,1,0,199.633,352h17.172A40.119,40.119,0,0,0,248,383.2V400h-8a8,8,0,0,0,0,16h32a8,8,0,0,0,0-16h-8V383.2a39.965,39.965,0,0,0,24.623-62.3l72.538-77.377,8.17,21.445A87.977,87.977,0,1,0,408,256ZM258.888,329.223l-3.541-9.206c.218-.006.434-.017.653-.017a23.859,23.859,0,0,1,9.635,2.026ZM244.352,336H233.376a24.077,24.077,0,0,1,7.041-10.23Zm-27.547,0H199.633A87.609,87.609,0,0,0,179.6,287.719l33.357-33.357,21.52,55.952A40.1,40.1,0,0,0,216.805,336Zm-82.181,0a24.147,24.147,0,0,0-.969-2.341l34.565-34.565A71.658,71.658,0,0,1,183.545,336ZM120,344a8,8,0,1,1-8-8A8.009,8.009,0,0,1,120,344Zm96-168a24.042,24.042,0,0,1,22.629,16H176V176ZM158.624,96A24.039,24.039,0,0,1,136,112H56A24.039,24.039,0,0,1,33.376,96ZM128,192H64V176h64ZM64,208h64v16H64Zm80,16V168a8,8,0,0,0-8-8H56a8,8,0,0,0-8,8v56H32V119.978A39.788,39.788,0,0,0,56,128h80a39.788,39.788,0,0,0,24-8.022V224Zm32,5.333V208h18.584l12.029,30.073L192.866,251.82ZM112,416a72,72,0,1,1,44.906-128.22l-34.565,34.565A24,24,0,1,0,134.624,352h48.921A72.1,72.1,0,0,1,112,416Zm121.376-64H248v14.624A24.119,24.119,0,0,1,233.376,352ZM280,344a24.039,24.039,0,0,1-16,22.624V347.163l13.305-14.192A23.843,23.843,0,0,1,280,344Zm-3.043-34.052a39.825,39.825,0,0,0-27.557-5.394l-22.727-59.091,122.906-32.346,5.246,13.769ZM408,416a71.979,71.979,0,0,1-32.938-135.991l5.738,15.064A56.035,56.035,0,0,0,352,344a8,8,0,0,0,16,0,40,40,0,0,1,18.58-33.755l5.9,15.474A23.982,23.982,0,1,0,408,320c-.194,0-.385.01-.577.015l-5.9-15.483A40.068,40.068,0,0,1,408,304a8,8,0,0,0,0-16,55.915,55.915,0,0,0-12.252,1.367L390,274.279A72,72,0,1,1,408,416Zm0-80a8,8,0,1,1-8,8A8.009,8.009,0,0,1,408,336Z" fill="#43464e" data-original="#000000" style="" class=""/><path xmlns="http://www.w3.org/2000/svg" d="M394.666,381.726a40.323,40.323,0,0,1-20-15.613,8,8,0,1,0-13.324,8.858,56.424,56.424,0,0,0,28,21.84,8,8,0,1,0,5.332-15.085Z" fill="#43464e" data-original="#000000" style="" class=""/></g></svg>
